<svg class="img-fluid" id="outputsvg" xmlns="http://www.w3.org/2000/svg" style="transform: none; transform-origin: 50% 50%; cursor: move;" width="1730" height="669" viewBox="0 0 17300 6690"><g id="l14p5ew7AnwJq9rQixAIZ7P" fill="rgb(37,98,170)" style="transform: none;"><g style="transform: none;"><path id="pioqGUu5S" d="M2300 6029 c-184 -47 -224 -87 -271 -269 l-29 -111 2 -2392 c3 -2628 -2 -2379 55 -2546 18 -49 60 -102 106 -129 18 -11 78 -31 135 -46 l103 -26 1897 0 1898 0 99 26 c120 31 141 42 187 92 48 53 51 60 82 180 l26 103 0 2372 c0 2154 -1 2378 -16 2432 -9 33 -20 77 -24 98 -11 54 -59 127 -106 160 -27 19 -79 38 -160 58 l-119 29 -1875 -1 -1875 0 -115 -30z m555 -298 c28 -5 43 -9 35 -10 -8 0 -76 -6 -150 -11 -233 -18 -481 -80 -619 -156 -24 -13 -45 -24 -47 -24 -6 0 -5 54 2 89 5 25 16 37 53 56 56 28 136 52 216 65 67 10 432 4 510 -9z m3160 -51 c128 -15 279 -46 398 -84 l102 -32 3 -72 c2 -40 1 -72 -1 -72 -3 0 -53 16 -112 35 -59 19 -164 47 -234 62 -114 24 -147 27 -341 27 -409 1 -993 -15 -1120 -30 -69 -8 -247 -18 -397 -21 l-271 -6 -104 46 c-56 26 -143 58 -193 72 l-90 25 225 -5 c267 -6 687 8 855 30 82 10 217 15 430 16 170 1 355 5 410 9 156 11 341 11 440 0z m-2888 -10 c252 -21 576 -85 728 -145 94 -37 560 -269 609 -303 43 -30 80 -90 70 -116 -14 -37 -98 -14 -523 150 -135 52 -246 93 -247 91 -2 -2 54 -48 124 -102 197 -154 288 -248 341 -352 31 -62 27 -89 -18 -134 -69 -69 -108 -56 -381 123 -280 184 -430 261 -598 305 -85 22 -118 26 -267 27 -191 1 -250 -11 -323 -64 -59 -42 -82 -84 -82 -146 0 -73 22 -97 112 -123 273 -81 496 -200 543 -292 19 -36 19 -119 0 -146 -23 -32 -78 -46 -150 -39 -71 7 -275 75 -703 232 l-292 107 2 371 3 371 75 38 c245 123 603 177 977 147z m2993 -209 c96 -17 225 -41 285 -54 l110 -23 3 -67 c2 -56 0 -67 -13 -67 -9 0 -105 18 -213 39 -403 81 -541 87 -987 40 -179 -19 -262 -22 -560 -21 l-350 1 -125 65 c-69 36 -118 67 -110 68 8 1 227 3 485 3 411 0 498 3 695 22 312 31 309 31 465 27 97 -2 193 -12 315 -33z m-193 -151 c169 -13 270 -33 341 -66 47 -22 73 -27 152 -29 l95 -2 3 -68 3 -67 -119 4 c-105 3 -125 7 -176 32 -102 50 -186 59 -541 60 -286 0 -335 -2 -460 -22 -162 -26 -478 -45 -579 -34 -67 7 -70 8 -78 38 -4 16 -23 46 -42 65 l-34 34 256 1 c213 0 284 4 412 23 269 39 522 50 767 31z m-2712 -159 c160 -39 335 -130 618 -318 180 -121 260 -158 320 -150 70 9 137 79 137 142 0 59 -57 151 -159 258 -93 96 -94 99 -51 77 66 -33 251 -152 323 -207 34 -26 170 -138 302 -248 132 -110 269 -222 305 -247 77 -55 110 -90 173 -179 59 -85 128 -146 181 -160 49 -13 136 -6 254 22 47 11 87 17 90 14 22 -21 -452 -488 -601 -593 -115 -80 -256 -103 -380 -61 -78 26 -154 72 -284 171 -137 105 -214 153 -368 233 -71 37 -175 93 -229 123 -115 65 -315 154 -328 146 -26 -17 12 -43 169 -118 97 -46 197 -101 230 -127 120 -94 174 -219 154 -355 -14 -92 -60 -219 -102 -281 -79 -115 -268 -278 -649 -558 -371 -273 -499 -380 -602 -503 -167 -199 -275 -426 -329 -689 -20 -96 -23 -149 -28 -478 l-6 -370 -28 40 c-54 79 -116 275 -147 473 l-12 72 -49 0 -49 0 0 1711 c0 1626 1 1711 18 1704 107 -42 624 -229 747 -270 241 -81 339 -83 404 -10 27 31 31 43 31 92 0 73 -28 131 -88 183 -70 60 -240 143 -413 201 -85 28 -157 56 -161 63 -15 22 -8 89 13 122 24 40 101 80 179 93 86 16 322 5 415 -18z m2510 -41 c242 -16 493 -58 683 -116 l82 -25 -2 -2022 -3 -2022 -23 -58 c-44 -108 -121 -184 -233 -230 l-54 -22 -1151 -3 -1151 -2 -8 152 c-11 224 -8 625 4 681 6 26 18 97 27 158 26 191 40 214 226 382 205 184 343 438 385 712 20 131 12 371 -16 505 -25 116 -70 258 -117 363 -18 43 -34 80 -34 82 0 2 41 -28 92 -66 170 -127 276 -169 428 -169 143 0 236 37 370 145 65 53 80 62 80 46 0 -29 67 -45 160 -37 41 3 86 9 98 12 24 7 24 7 8 -24 l-16 -31 -93 5 c-57 3 -115 0 -152 -8 -58 -13 -60 -14 -63 -47 -4 -37 8 -50 48 -52 23 -1 22 -2 -7 -11 -28 -9 -33 -16 -33 -44 0 -18 6 -35 13 -38 8 -3 7 -8 -5 -16 -12 -7 -18 -24 -18 -45 0 -33 2 -35 35 -35 l35 0 -20 -32 c-11 -18 -20 -48 -20 -65 0 -33 1 -33 48 -33 29 0 59 8 80 20 l32 20 0 -45 0 -45 40 0 c34 0 42 4 56 32 9 17 19 63 23 102 6 68 7 69 14 30 4 -22 17 -56 30 -75 18 -27 30 -35 60 -37 l37 -3 0 47 0 47 23 -21 c14 -13 36 -22 55 -22 l32 0 0 64 c0 35 -7 82 -15 105 l-15 42 32 -26 c48 -41 103 -65 148 -65 l40 0 0 55 c0 31 -9 78 -20 107 -11 29 -20 54 -20 55 0 1 19 -7 43 -17 24 -11 64 -20 95 -20 l52 0 0 38 c-1 48 -31 115 -80 173 l-39 47 60 -19 c34 -11 87 -19 120 -19 l59 0 0 33 c0 62 -80 155 -197 230 -85 54 -150 82 -231 98 l-64 12 7 41 c3 23 8 64 11 93 6 50 5 52 -21 59 -15 4 -30 17 -36 31 -8 21 -15 24 -46 21 -34 -3 -38 -6 -41 -34 -3 -31 -5 -32 -85 -49 -173 -38 -210 -24 -317 119 -77 103 -116 142 -215 216 -38 29 -184 148 -323 264 l-253 211 53 3 c29 2 60 9 68 16 10 8 81 17 200 25 102 6 284 21 405 31 121 11 247 21 280 23 33 2 71 4 85 5 14 1 93 -3 175 -8z m-35 -1180 c-5 -41 -19 -111 -30 -155 l-21 -80 -107 0 c-59 0 -118 -3 -132 -7 -17 -5 28 46 135 155 88 89 161 162 162 162 1 0 -2 -34 -7 -75z m135 -98 c-1 -2 -14 0 -29 4 -21 5 -26 12 -26 35 l0 29 29 -32 c16 -18 28 -34 26 -36z m-1640 -77 c22 -13 34 -25 28 -25 -16 0 -17 -56 -1 -114 35 -131 -84 -364 -280 -546 -118 -111 -298 -242 -467 -340 -56 -32 -38 -17 100 88 272 205 426 352 490 466 70 126 106 322 82 454 -4 23 -4 42 0 42 5 0 26 -11 48 -25z m1574 -73 c12 -22 11 -23 -8 -13 -12 7 -18 17 -14 27 6 17 6 17 22 -14z m-1414 -257 c144 -387 139 -717 -15 -1030 -76 -155 -132 -227 -295 -381 -153 -145 -177 -184 -199 -321 -8 -48 -22 -136 -32 -194 -14 -92 -16 -159 -12 -495 l5 -388 -55 59 c-190 208 -297 478 -279 701 5 65 -7 92 -36 81 -7 -3 -59 -91 -116 -197 -72 -133 -106 -188 -112 -178 -38 57 -99 336 -99 449 0 76 -11 119 -29 119 -13 0 -20 -16 -31 -67 -31 -164 -98 -349 -122 -341 -23 8 -30 66 -30 243 0 185 21 430 48 558 18 88 69 192 134 273 58 73 226 211 363 297 461 290 621 424 756 632 49 76 101 211 101 265 0 49 12 30 55 -85z m-1309 -1027 c-83 -89 -150 -219 -171 -331 -46 -246 -64 -718 -31 -829 22 -75 64 -97 130 -66 25 11 76 96 76 127 0 29 10 2 35 -93 14 -54 37 -123 52 -152 28 -57 46 -68 99 -62 29 3 32 7 130 183 l38 70 8 -60 c21 -170 116 -374 240 -517 l49 -58 -618 0 c-340 0 -623 4 -629 8 -16 10 -25 421 -15 627 27 495 190 826 561 1136 58 49 107 88 108 89 2 0 -26 -32 -62 -72z m-861 -1507 c15 -47 38 -108 52 -134 13 -27 22 -51 20 -54 -7 -6 -83 90 -103 130 -26 50 -44 158 -43 267 l1 105 23 -114 c13 -62 35 -152 50 -200z"></path><path id="pgrjldUOv" d="M4794 4111 c-88 -38 -84 -174 5 -211 108 -44 202 93 124 180 -30 34 -89 48 -129 31z m81 -37 c10 -4 23 -21 30 -38 32 -75 -58 -142 -112 -83 -60 63 1 152 82 121z"></path><path id="pgnjWTQX6" d="M8967 4855 c-82 -21 -114 -40 -121 -72 -12 -56 -37 -225 -34 -228 2 -2 18 -5 36 -7 32 -3 34 -1 57 56 45 111 116 172 212 182 87 9 163 -55 163 -138 0 -80 -48 -130 -199 -208 -171 -88 -234 -161 -235 -275 -1 -84 25 -145 85 -199 57 -51 117 -75 211 -83 62 -5 213 11 235 25 12 8 44 234 35 244 -4 4 -20 8 -35 10 -26 3 -31 -2 -45 -37 -43 -104 -93 -150 -174 -161 -138 -19 -208 142 -103 235 19 16 90 58 157 92 159 81 220 139 238 223 29 139 -37 259 -178 324 -70 32 -214 40 -305 17z"></path><path id="plkAx10jT" d="M9856 4855 c-63 -24 -102 -61 -133 -122 l-28 -58 -5 -312 c-5 -301 -6 -313 -26 -333 -12 -12 -40 -24 -63 -27 -39 -5 -41 -7 -41 -39 0 -21 5 -34 13 -34 19 0 237 -29 268 -35 l26 -6 -5 293 c-5 314 2 406 39 465 62 100 210 105 336 10 l42 -32 0 -240 c0 -348 -6 -368 -109 -382 -52 -8 -55 -10 -58 -39 l-3 -32 68 -6 c78 -8 205 -24 246 -32 l27 -6 0 381 c0 371 4 425 32 443 7 3 38 10 70 13 58 7 58 7 58 40 0 31 -2 33 -47 40 -41 5 -211 45 -265 61 -16 5 -18 -3 -18 -70 0 -42 -2 -76 -5 -76 -3 0 -29 18 -57 41 -90 71 -163 102 -248 106 -50 2 -88 -2 -114 -12z"></path><path id="p2bNoVg7I" d="M11690 4861 c-82 -25 -151 -94 -175 -175 -29 -98 -13 -171 50 -232 35 -34 66 -49 180 -90 76 -27 166 -62 199 -79 57 -28 61 -32 64 -68 5 -58 -25 -146 -62 -183 -37 -37 -102 -60 -142 -50 -45 12 -89 65 -113 139 -34 100 -81 121 -146 64 -36 -32 -42 -75 -15 -110 50 -63 265 -181 353 -193 110 -15 236 63 277 172 18 50 20 78 20 307 0 260 6 311 40 342 17 16 24 16 65 5 25 -7 48 -11 50 -8 3 2 8 18 11 35 6 30 3 32 -85 83 -78 44 -97 51 -125 46 -46 -9 -85 -41 -106 -88 l-17 -38 -41 31 c-113 83 -206 113 -282 90z m221 -146 c24 -8 57 -25 72 -38 l28 -22 -3 -156 -3 -156 -120 54 c-131 58 -170 89 -185 142 -11 41 2 105 28 135 48 55 105 67 183 41z"></path><path id="pQZ95YrEY" d="M13927 4860 c-138 -35 -253 -147 -298 -291 -27 -86 -26 -229 2 -311 74 -220 327 -393 551 -375 73 6 143 32 177 66 30 30 28 82 -5 120 -33 40 -65 40 -114 1 -93 -74 -206 -93 -293 -51 -56 27 -91 67 -126 141 -23 49 -26 67 -26 170 1 95 5 125 23 172 32 80 97 148 173 183 55 24 71 27 138 23 83 -5 121 -20 189 -75 41 -34 44 -35 63 -18 10 10 19 26 19 35 0 30 -132 145 -207 181 -56 27 -82 33 -148 35 -44 2 -97 -1 -118 -6z"></path><path id="pAOzwq09o" d="M14819 4857 c-95 -27 -202 -115 -247 -203 -53 -104 -69 -276 -37 -399 73 -278 360 -448 579 -341 108 53 186 175 186 291 0 68 -13 81 -87 89 -100 11 -354 26 -440 26 l-83 0 6 48 c14 128 51 210 122 272 109 96 267 93 398 -7 l36 -27 19 23 c11 13 19 28 19 33 0 25 -123 129 -195 164 -64 32 -88 38 -153 41 -43 1 -97 -3 -123 -10z m276 -650 c15 -12 17 -22 11 -56 -24 -151 -165 -225 -278 -146 -43 31 -99 123 -114 188 l-6 27 184 0 c139 0 189 -3 203 -13z"></path><path id="p42g1RgFQ" d="M7072 4808 c3 -31 6 -33 52 -40 29 -4 58 -15 70 -28 20 -20 21 -32 24 -327 2 -217 -1 -315 -9 -335 -9 -22 -23 -31 -65 -44 -49 -14 -54 -18 -54 -44 0 -27 3 -29 76 -45 41 -9 107 -28 146 -41 40 -13 75 -24 80 -24 4 0 8 186 8 414 l0 415 23 26 c16 19 36 28 72 33 47 7 50 9 53 40 l3 32 -241 0 -241 0 3 -32z"></path><path id="pnfZTBDlF" d="M7652 4808 c3 -31 6 -33 53 -40 36 -5 56 -14 73 -33 22 -26 22 -29 22 -330 0 -210 -4 -312 -12 -330 -8 -17 -24 -29 -52 -36 -23 -6 -47 -13 -53 -15 -7 -2 -13 -17 -13 -33 0 -28 2 -30 78 -46 42 -10 112 -30 154 -45 l77 -27 3 78 3 78 99 -64 c57 -37 119 -69 148 -76 104 -24 216 12 275 89 56 74 63 116 64 401 0 268 7 343 31 367 8 8 34 18 59 22 40 7 44 10 47 40 l3 32 -226 0 -226 0 3 -32 c3 -30 7 -33 47 -40 54 -9 68 -21 81 -67 13 -47 13 -463 -1 -521 -17 -73 -39 -109 -84 -135 -74 -44 -163 -32 -264 36 l-61 41 0 282 c0 174 4 295 11 314 11 31 41 49 94 54 26 3 30 8 33 36 l3 32 -236 0 -236 0 3 -32z"></path><path id="pDjGrL0XK" d="M10702 4808 c3 -31 6 -33 53 -40 36 -5 56 -14 73 -34 l23 -26 -3 -319 c-3 -358 0 -344 -79 -357 -40 -7 -44 -10 -47 -39 l-3 -31 78 -17 c43 -9 113 -30 156 -45 l77 -29 0 107 1 107 22 -30 c46 -63 121 -135 161 -155 96 -46 206 -1 206 83 0 43 -29 97 -64 118 -41 25 -49 24 -88 -10 -63 -54 -102 -48 -171 28 -67 74 -67 74 -67 345 0 240 0 245 23 271 17 20 35 27 82 33 59 7 60 8 63 40 l3 32 -251 0 -251 0 3 -32z"></path><path id="p12h6BFQaY" d="M12432 4808 c3 -31 6 -33 53 -40 36 -5 56 -14 73 -33 22 -26 22 -29 22 -330 0 -210 -4 -312 -12 -330 -8 -17 -24 -29 -52 -36 -23 -6 -47 -13 -53 -15 -7 -2 -13 -17 -13 -33 0 -28 2 -30 78 -46 42 -10 112 -30 154 -45 l77 -27 3 78 3 78 99 -64 c57 -37 119 -69 148 -76 104 -24 216 12 275 89 56 74 63 116 64 401 0 268 7 343 31 367 8 8 34 18 59 22 40 7 44 10 47 40 l3 32 -226 0 -226 0 3 -32 c3 -30 7 -33 47 -40 54 -9 68 -21 81 -67 13 -47 13 -463 -1 -521 -17 -73 -39 -109 -84 -135 -74 -44 -163 -32 -264 36 l-61 41 0 282 c0 174 4 295 11 314 11 31 41 49 94 54 26 3 30 8 33 36 l3 32 -236 0 -236 0 3 -32z"></path><path id="pfzNBuNE9" d="M7239 3664 c-106 -68 -60 -224 67 -224 28 0 44 8 70 34 30 30 34 40 34 85 0 41 -5 56 -28 82 -35 39 -102 49 -143 23z"></path><path id="p56Fjhx85" d="M9210 3131 l0 -89 73 -12 c39 -7 101 -18 137 -24 l64 -12 561 -1247 560 -1246 166 -1 167 0 266 578 c146 317 404 878 574 1247 l309 670 109 18 c114 20 148 18 331 -14 l63 -11 479 -558 480 -558 -432 -564 -432 -563 -158 -24 -157 -25 0 -83 0 -83 580 0 580 0 0 83 0 83 -142 11 c-223 18 -234 -21 120 442 162 212 302 394 311 403 15 16 38 -9 346 -373 182 -214 331 -393 333 -398 1 -4 -5 -18 -15 -30 -15 -19 -37 -24 -155 -38 l-138 -17 0 -83 0 -83 495 0 495 0 0 83 0 83 -156 19 -155 18 -432 514 c-238 283 -433 518 -435 522 -3 8 868 1163 908 1205 14 15 55 25 172 42 84 13 156 24 161 24 4 0 7 38 7 85 l0 85 -615 0 -615 0 0 -85 c0 -81 1 -85 23 -85 12 -1 84 -7 161 -14 127 -11 139 -14 156 -36 10 -14 15 -29 11 -35 -5 -5 -156 -207 -336 -449 -315 -423 -328 -438 -345 -420 -9 11 -169 199 -355 419 -186 220 -347 410 -357 422 -17 19 -19 26 -9 56 l12 34 92 7 c51 4 122 9 160 13 l67 6 0 88 0 89 -1015 0 -1015 0 0 -90 0 -90 43 -1 c23 0 90 -4 150 -8 89 -6 110 -11 122 -27 8 -10 15 -24 15 -31 0 -7 -76 -180 -170 -385 l-169 -373 -561 0 -561 0 -171 379 -170 379 26 25 c23 23 36 26 133 33 59 4 129 8 156 8 l47 1 0 90 0 90 -475 0 -475 0 0 -89z m1958 -1114 c-6 -25 -473 -1067 -478 -1067 -3 0 -109 243 -236 540 l-232 540 475 0 c387 0 474 -2 471 -13z"></path><path id="pVEM2XNEL" d="M7160 3126 c0 -72 3 -85 18 -90 9 -2 71 -8 137 -11 110 -7 123 -10 162 -37 l43 -29 0 -1093 0 -1093 -42 -29 c-40 -26 -53 -28 -200 -38 l-158 -10 0 -83 0 -84 753 4 c812 4 840 6 1073 62 334 80 517 236 590 505 14 50 18 103 19 230 0 156 -2 170 -29 254 -86 261 -343 471 -688 560 -187 48 -306 59 -605 53 l-273 -5 0 383 0 383 40 30 c40 29 45 30 193 37 84 3 160 9 170 11 14 5 17 18 17 90 l0 84 -610 0 -610 0 0 -84z m1357 -1141 c380 -62 586 -288 586 -645 1 -355 -186 -541 -608 -605 -65 -10 -175 -15 -317 -15 l-218 0 0 635 0 634 63 4 c175 10 408 6 494 -8z"></path></g></g><g id="l2dQsjTeMPxeRC9xNVQz0Vy" fill="rgb(255,249,69)" style="transform: none;"><g style="transform: none;"><path id="pKMPbMSmS" d="M8380 6179 c-49 -20 -93 -63 -117 -116 -23 -49 -25 -64 -21 -151 6 -115 32 -184 100 -258 62 -68 124 -94 223 -94 70 0 86 4 130 29 82 47 128 162 110 271 l-7 40 -224 0 -224 0 0 42 c0 54 34 125 71 143 67 35 159 5 211 -70 31 -44 33 -45 85 -45 30 0 53 5 53 10 0 48 -98 157 -170 189 -49 23 -174 28 -220 10z m320 -389 c0 -83 -54 -140 -133 -140 -84 0 -152 52 -186 143 l-11 27 165 0 165 0 0 -30z"></path><path id="psz45JYnI" d="M9740 6179 c-49 -20 -93 -63 -117 -116 -23 -49 -25 -64 -21 -151 6 -115 32 -184 100 -258 62 -68 124 -94 223 -94 70 0 86 4 130 29 82 47 128 162 110 271 l-7 40 -224 0 -224 0 0 42 c0 54 34 125 71 143 67 35 159 5 211 -70 31 -44 33 -45 85 -45 30 0 53 5 53 10 0 48 -98 157 -170 189 -49 23 -174 28 -220 10z m320 -389 c0 -83 -54 -140 -133 -140 -84 0 -152 52 -186 143 l-11 27 165 0 165 0 0 -30z"></path><path id="pu4PO4c0s" d="M10380 6179 c-45 -18 -100 -81 -115 -133 -38 -127 4 -307 93 -400 57 -59 122 -86 212 -86 132 1 207 59 218 170 l5 50 -56 0 -55 0 -7 -37 c-3 -20 -19 -49 -35 -65 -24 -23 -37 -28 -78 -28 -86 0 -145 61 -178 183 -18 69 -18 171 1 207 52 100 194 70 246 -52 11 -26 16 -28 70 -28 33 0 59 3 59 6 0 3 -12 30 -27 60 -30 61 -96 128 -148 150 -39 16 -167 18 -205 3z"></path><path id="pJ5CgMhRR" d="M10859 6161 c-19 -19 -29 -40 -29 -58 0 -16 20 -125 44 -241 l44 -212 -40 0 c-40 0 -40 0 -34 -31 3 -17 6 -35 6 -40 0 -5 20 -9 44 -9 l43 0 13 -74 c7 -41 15 -78 19 -83 9 -13 106 -73 118 -73 9 0 -6 97 -32 208 -5 21 -2 22 46 22 48 0 51 1 45 23 -3 12 -6 30 -6 40 0 14 -9 17 -53 17 l-54 0 -38 188 c-21 103 -38 203 -39 222 l-1 35 51 0 50 -1 -9 48 -10 48 -74 0 c-69 0 -77 -2 -104 -29z"></path><path id="pJrfih3P" d="M12400 6179 c-49 -20 -93 -63 -117 -116 -23 -49 -25 -64 -21 -151 6 -115 32 -184 100 -258 62 -68 124 -94 223 -94 70 0 86 4 130 29 82 47 128 162 110 271 l-7 40 -224 0 -224 0 0 42 c0 54 34 125 71 143 67 35 159 5 211 -70 31 -44 33 -45 85 -45 30 0 53 5 53 10 0 48 -98 157 -170 189 -49 23 -174 28 -220 10z m320 -389 c0 -83 -54 -140 -133 -140 -84 0 -152 52 -186 143 l-11 27 165 0 165 0 0 -30z"></path><path id="pC8dP3YQr" d="M12979 6167 c-57 -38 -79 -81 -79 -152 0 -71 22 -114 79 -152 46 -31 85 -40 230 -51 67 -6 127 -14 132 -19 6 -6 12 -26 16 -46 5 -31 1 -40 -25 -67 -28 -27 -37 -30 -94 -30 -74 0 -118 22 -149 75 -20 33 -24 35 -75 35 -46 0 -54 -3 -54 -19 0 -34 63 -114 114 -146 45 -27 59 -30 147 -33 88 -3 104 -1 153 21 105 48 115 100 65 330 -22 102 -30 159 -27 204 l4 63 -58 0 c-55 0 -58 -1 -58 -24 0 -28 -15 -42 -26 -25 -3 6 -30 22 -58 35 -72 33 -188 34 -237 1z m243 -96 c46 -29 87 -95 102 -164 6 -27 5 -28 -21 -23 -15 3 -67 10 -116 16 -106 13 -128 21 -156 56 -30 38 -27 79 8 115 25 25 37 29 83 29 42 0 64 -6 100 -29z"></path><path id="pP35ls5Fs" d="M13690 6179 c-45 -18 -100 -81 -115 -133 -38 -127 4 -307 93 -400 57 -59 122 -86 212 -86 132 1 207 59 218 170 l5 50 -56 0 -55 0 -7 -37 c-3 -20 -19 -49 -35 -65 -24 -23 -37 -28 -78 -28 -86 0 -145 61 -178 183 -18 69 -18 171 1 207 52 100 194 70 246 -52 11 -26 16 -28 70 -28 33 0 59 3 59 6 0 3 -12 30 -27 60 -30 61 -96 128 -148 150 -39 16 -167 18 -205 3z"></path><path id="pMnOgMkBC" d="M14280 6179 c-49 -20 -93 -63 -117 -116 -23 -49 -25 -64 -21 -151 6 -115 32 -184 100 -258 62 -68 124 -94 223 -94 70 0 86 4 130 29 82 47 128 162 110 271 l-7 40 -224 0 -224 0 0 42 c0 54 34 125 71 143 67 35 159 5 211 -70 31 -44 33 -45 85 -45 30 0 53 5 53 10 0 48 -98 157 -170 189 -49 23 -174 28 -220 10z m320 -389 c0 -83 -54 -140 -133 -140 -84 0 -152 52 -186 143 l-11 27 165 0 165 0 0 -30z"></path><path id="pNkqXTvaZ" d="M7456 6118 c7 -35 47 -222 88 -416 42 -194 76 -354 76 -357 0 -3 102 -5 228 -5 201 0 232 3 269 19 121 55 138 256 33 383 -17 20 -56 49 -88 65 -55 27 -63 28 -239 31 -159 3 -183 6 -187 20 -3 10 -19 86 -37 170 l-33 152 -62 0 -62 0 14 -62z m523 -394 c95 -40 147 -154 106 -233 -22 -43 -58 -53 -216 -54 l-143 -2 -32 150 c-18 83 -33 154 -34 159 0 15 278 -3 319 -20z"></path><path id="ph38CNadF" d="M8865 6168 c2 -7 29 -137 60 -288 31 -151 59 -283 61 -292 4 -14 16 -18 56 -18 l50 0 -7 37 -7 36 37 -32 c53 -46 78 -53 185 -49 l94 3 18 -80 c31 -135 61 -159 194 -153 45 1 86 6 90 10 4 4 3 27 -2 50 l-9 43 -68 3 c-67 3 -69 4 -81 35 -7 18 -16 47 -19 65 l-6 32 54 0 c59 0 63 5 49 58 -6 20 -13 22 -64 22 l-57 0 -33 158 c-18 86 -42 204 -55 262 l-21 105 -57 3 c-42 2 -57 0 -57 -10 1 -7 24 -125 53 -263 l53 -250 -40 -3 c-24 -2 -42 2 -47 10 -7 10 -12 11 -29 1 -41 -26 -80 -16 -130 35 -58 58 -78 109 -122 318 l-35 159 -56 3 c-43 2 -56 0 -52 -10z"></path><path id="pLD3aK5FU" d="M11476 6118 c7 -35 47 -222 88 -416 42 -194 76 -354 76 -357 0 -3 102 -5 228 -5 201 0 232 3 269 19 121 55 138 256 33 383 -17 20 -56 49 -88 65 -55 27 -63 28 -239 31 -159 3 -183 6 -187 20 -3 10 -19 86 -37 170 l-33 152 -62 0 -62 0 14 -62z m523 -394 c95 -40 147 -154 106 -233 -22 -43 -58 -53 -216 -54 l-143 -2 -32 150 c-18 83 -33 154 -34 159 0 15 278 -3 319 -20z"></path><path id="p14Nv8ISdy" d="M2860 5720 l-45 -7 48 -1 c26 -1 47 3 47 8 0 6 -1 9 -2 8 -2 0 -23 -4 -48 -8z"></path><path id="px27TE2Ph" d="M3993 5623 c43 -2 110 -2 150 0 40 1 5 3 -78 3 -82 0 -115 -2 -72 -3z"></path><path id="pdqBGpUDG" d="M14850 5591 c0 -11 14 -29 30 -41 31 -22 60 -67 60 -95 0 -10 -10 -15 -31 -15 -23 0 -30 -4 -26 -14 3 -8 9 -31 13 -50 l6 -36 68 0 68 0 -14 65 c-17 83 -43 134 -89 173 -41 37 -85 43 -85 13z"></path><path id="p2p4Chh7G" d="M15040 5587 c0 -17 7 -28 20 -32 24 -7 56 -51 65 -88 7 -25 5 -27 -25 -27 -24 0 -31 -4 -27 -14 3 -8 9 -31 13 -50 l6 -36 64 0 c72 0 71 -2 53 82 -21 100 -75 172 -137 184 -29 6 -32 4 -32 -19z"></path><path id="pBwtKbEef" d="M7136 5563 c18 -99 44 -161 84 -197 49 -44 100 -51 93 -12 -3 13 -15 29 -28 36 -22 12 -65 77 -65 99 0 6 14 11 30 11 34 0 33 -3 19 56 l-11 44 -65 0 -64 0 7 -37z"></path><path id="poMR75Pfk" d="M7314 5583 c2 -10 10 -44 17 -75 22 -102 84 -178 146 -178 21 0 23 3 18 23 -4 12 -21 33 -37 46 -25 20 -58 74 -58 96 0 3 14 5 30 5 33 0 35 6 19 63 l-10 37 -65 0 c-57 0 -65 -2 -60 -17z"></path><path id="pjgroiimE" d="M5428 5533 c12 -2 30 -2 40 0 9 3 -1 5 -23 4 -22 0 -30 -2 -17 -4z"></path><path id="psJEQrU9R" d="M4473 5493 c9 -2 25 -2 35 0 9 3 1 5 -18 5 -19 0 -27 -2 -17 -5z"></path><path id="pKD30PkZh" d="M4993 5303 c9 -2 25 -2 35 0 9 3 1 5 -18 5 -19 0 -27 -2 -17 -5z"></path><path id="p9iZ9Md4G" d="M4578 5253 c12 -2 32 -2 45 0 12 2 2 4 -23 4 -25 0 -35 -2 -22 -4z"></path><path id="pRgSQhOTf" d="M2873 5213 c9 -2 25 -2 35 0 9 3 1 5 -18 5 -19 0 -27 -2 -17 -5z"></path><path id="pnK91UFX2" d="M6398 5213 c18 -2 45 -2 60 0 15 2 0 4 -33 4 -33 0 -45 -2 -27 -4z"></path><path id="p6E13lhZq" d="M5435 5143 c-33 -2 -159 -12 -280 -23 -121 -10 -303 -25 -405 -31 -132 -9 -190 -16 -202 -27 -12 -10 -30 -12 -65 -8 -26 3 -77 9 -113 12 l-65 6 70 -50 c39 -27 183 -144 321 -260 139 -115 278 -229 310 -253 90 -66 140 -116 214 -215 76 -101 120 -135 189 -142 44 -4 170 15 253 38 34 10 36 13 28 35 -6 15 -6 27 1 30 5 4 14 -7 20 -24 6 -17 15 -29 19 -26 14 9 40 -7 40 -24 0 -9 -7 -27 -16 -39 -12 -17 -14 -35 -9 -76 l7 -54 62 -12 c33 -6 84 -21 111 -33 117 -49 262 -164 301 -239 l16 -31 -51 6 c-139 17 -347 148 -419 266 l-20 33 -7 -74 c-4 -40 -18 -116 -31 -168 -13 -52 -24 -97 -24 -100 0 -4 24 -17 53 -30 102 -46 210 -185 224 -289 7 -50 -3 -52 -72 -12 -96 56 -187 175 -201 264 -4 20 -10 37 -14 37 -4 0 -15 -21 -25 -47 -33 -88 -139 -274 -201 -351 -11 -13 -29 -36 -41 -52 -23 -28 -74 -55 -93 -48 -20 6 34 71 76 92 83 40 235 308 293 519 26 92 45 248 37 302 l-7 42 -222 -221 c-230 -229 -346 -330 -426 -370 -150 -77 -293 -73 -451 10 -37 19 -132 84 -211 143 -79 60 -197 139 -262 175 -65 36 -120 66 -122 66 -2 0 12 -26 31 -57 19 -32 40 -76 46 -98 19 -66 12 -171 -17 -270 -67 -227 -167 -331 -725 -748 -475 -354 -593 -460 -711 -638 -207 -310 -270 -612 -253 -1222 5 -175 4 -237 -5 -237 -6 0 -29 18 -52 41 -75 75 -150 268 -187 482 l-17 98 -30 -3 -30 -3 0 -160 c1 -123 5 -173 18 -217 23 -77 97 -172 167 -214 106 -64 102 -64 848 -64 l675 0 -72 76 c-163 171 -258 375 -284 606 l-12 108 -89 -162 c-97 -180 -105 -191 -128 -183 -37 15 -108 224 -124 366 -3 35 -9 68 -12 72 -2 5 -19 -36 -37 -90 -36 -114 -59 -157 -90 -171 -33 -15 -53 3 -71 65 -31 107 -14 532 31 771 9 49 32 112 61 172 41 83 60 108 148 195 108 107 210 183 416 310 341 210 531 380 646 575 63 107 78 159 79 265 0 50 -4 102 -8 116 -7 20 -5 28 8 33 36 13 173 -330 216 -539 89 -437 -48 -864 -369 -1152 -186 -168 -200 -191 -226 -382 -9 -61 -21 -132 -27 -158 -13 -57 -15 -495 -4 -731 l7 -162 1182 2 1181 3 54 22 c112 46 189 122 233 230 l23 58 3 2052 2 2052 -82 25 c-190 58 -441 100 -683 116 -146 9 -195 10 -320 3z m472 -1395 c89 -54 182 -163 207 -245 6 -20 4 -23 -17 -23 -45 0 -167 70 -227 130 -54 54 -126 173 -115 191 8 13 91 -16 152 -53z m-308 -87 c20 -5 21 -8 9 -18 -46 -39 -162 -61 -228 -43 -51 14 -44 25 32 51 53 18 141 23 187 10z m-64 -177 c39 -10 21 -21 -54 -34 -68 -13 -163 -8 -191 10 -13 8 -13 10 0 15 60 22 174 27 245 9z m175 -74 c37 -57 70 -151 70 -198 l0 -35 -24 22 c-48 45 -116 203 -116 269 0 24 1 25 20 7 11 -10 33 -39 50 -65z m-235 -30 l30 -7 -28 -11 c-33 -14 -156 -16 -176 -3 -11 7 -4 11 25 16 21 4 44 8 49 10 16 6 68 3 100 -5z m164 -94 c14 -27 27 -74 29 -105 5 -53 4 -55 -13 -41 -26 21 -53 86 -61 149 -9 68 10 67 45 -3z m-213 -1 c-24 -18 -72 -28 -117 -23 l-34 4 35 17 c19 9 58 16 85 16 46 0 48 -1 31 -14z m101 -85 c-5 -59 -30 -120 -48 -120 -18 0 -6 129 16 173 16 33 20 36 28 22 5 -10 7 -43 4 -75z"></path><path id="p1GYgvqC90" d="M4823 5113 c15 -2 39 -2 55 0 15 2 2 4 -28 4 -30 0 -43 -2 -27 -4z"></path><path id="pn9BtL1K0" d="M15230 4725 c19 -19 36 -35 39 -35 3 0 -10 16 -29 35 -19 19 -36 35 -39 35 -3 0 10 -16 29 -35z"></path><path id="pP0CbAYKS" d="M3170 4697 c0 -2 15 -16 33 -33 l32 -29 -29 33 c-28 30 -36 37 -36 29z"></path><path id="pgzUDjGkD" d="M4118 4683 c12 -2 30 -2 40 0 9 3 -1 5 -23 4 -22 0 -30 -2 -17 -4z"></path><path id="p1BSzjKzi0" d="M3073 4363 c15 -2 39 -2 55 0 15 2 2 4 -28 4 -30 0 -43 -2 -27 -4z"></path><path id="p1HKwnCyXq" d="M4823 4113 c9 -2 25 -2 35 0 9 3 1 5 -18 5 -19 0 -27 -2 -17 -5z"></path><path id="p141SAaa1M" d="M5403 4113 c15 -2 39 -2 55 0 15 2 2 4 -28 4 -30 0 -43 -2 -27 -4z"></path><path id="pjeqUnles" d="M14670 4015 c19 -19 36 -35 39 -35 3 0 -10 16 -29 35 -19 19 -36 35 -39 35 -3 0 10 -16 29 -35z"></path><path id="ppJx06eqQ" d="M4823 3893 c9 -2 25 -2 35 0 9 3 1 5 -18 5 -19 0 -27 -2 -17 -5z"></path><path id="p8ieezScx" d="M4015 3038 l-50 -53 53 50 c48 46 57 55 49 55 -1 0 -25 -24 -52 -52z"></path><path id="p12cuI0ZlW" d="M2790 2315 c-24 -25 -42 -45 -39 -45 3 0 25 20 49 45 24 25 42 45 39 45 -3 0 -25 -20 -49 -45z"></path><path id="pcyrQjGh0" d="M4095 2068 l-60 -63 63 60 c58 55 67 65 59 65 -1 0 -29 -28 -62 -62z"></path><path id="p1DWLArEQi" d="M2882 1580 c0 -19 2 -27 5 -17 2 9 2 25 0 35 -3 9 -5 1 -5 -18z"></path><path id="pndsHtjpR" d="M3793 810 c0 -25 2 -35 4 -22 2 12 2 32 0 45 -2 12 -4 2 -4 -23z"></path><path id="plhIMhuqr" d="M6535 758 c-24 -56 -116 -152 -180 -190 -41 -23 -44 -27 -20 -22 114 25 197 109 218 222 4 17 5 32 4 32 -2 0 -12 -19 -22 -42z"></path><path id="pql1In3Rz" d="M2040 765 c0 -36 46 -119 85 -154 42 -36 81 -55 135 -64 34 -6 34 -6 -10 15 -53 26 -169 138 -193 188 -12 25 -17 29 -17 15z"></path></g></g></svg>